<svg width="2117" height="752" viewBox="0 0 2117 752" fill="none" xmlns="http://www.w3.org/2000/svg">
<g opacity="0.14">
<path d="M1621.36 506.01C1617.83 509.707 1612.19 510.632 1604.42 508.783C1596.65 507.304 1589.95 503.791 1584.3 498.244C1578.65 492.697 1577.24 486.226 1580.06 478.831C1597.71 446.66 1618.54 410.606 1642.55 370.669C1666.2 330.733 1691.26 293.94 1717.74 260.29C1744.21 226.639 1770.51 202.788 1796.63 188.737C1819.23 179.492 1840.58 181.711 1860.7 195.393C1880.47 209.445 1891.94 225.9 1895.12 244.759C1895.83 256.961 1894.24 272.862 1890.36 292.461C1886.47 312.429 1882.06 330.918 1877.12 347.928C1888.41 333.876 1901.12 316.681 1915.24 296.343C1941.01 256.407 1971.55 218.319 2006.85 182.081C2016.38 174.315 2029.97 172.651 2047.62 177.089C2065.27 181.526 2081.33 189.661 2095.81 201.494C2110.28 213.327 2117.34 226.454 2116.99 240.876C2110.63 298.192 2091.75 357.542 2060.33 418.926C2028.91 480.31 1994.14 528.012 1956.02 562.032C1934.84 579.041 1915.6 584.958 1898.3 579.781C1880.65 574.604 1862.82 565.175 1844.82 551.493C1838.46 547.055 1831.76 542.433 1824.7 537.626C1815.87 547.98 1807.05 558.703 1798.22 569.797C1792.22 577.932 1785.87 586.067 1779.16 594.203C1771.04 602.338 1759.74 604.002 1745.27 599.195C1730.44 594.387 1717.91 586.252 1707.67 574.789C1697.44 563.696 1694.79 552.602 1699.73 541.509C1745.98 456.829 1775.28 391.932 1787.63 346.818C1799.63 301.705 1800.16 278.964 1789.22 278.594C1761.33 280.443 1705.38 356.248 1621.36 506.01ZM1872.88 463.854C1870.76 467.182 1869.71 472.359 1869.71 479.385C1869.71 486.411 1870.94 492.882 1873.41 498.799C1875.88 505.085 1879.59 508.783 1884.53 509.892C1889.47 511.371 1895.83 508.043 1903.59 499.908C1935.01 464.779 1961.31 424.473 1982.49 378.989C2003.67 333.876 2014.97 301.705 2016.38 282.476C1999.08 297.637 1975.43 324.632 1945.43 363.459C1915.42 402.286 1891.24 435.751 1872.88 463.854Z" fill="#FDC1C5"/>
<path d="M1326.96 499.354C1324.84 501.942 1321.66 502.497 1317.42 501.018C1313.19 499.908 1308.78 497.505 1304.19 493.807C1299.6 490.109 1296.07 486.226 1293.6 482.159C1290.77 478.461 1290.07 475.318 1291.48 472.729C1297.13 463.115 1303.48 451.837 1310.54 438.894C1327.13 408.572 1346.9 375.107 1369.85 338.498C1392.44 301.89 1417.33 268.61 1444.51 238.657C1471.69 209.075 1500.28 189.476 1530.29 179.862C1547.94 175.794 1568.59 177.458 1592.24 184.854C1615.89 192.25 1637.07 203.158 1655.78 217.58C1674.49 232.371 1685.08 248.272 1687.55 265.282C1690.38 305.588 1682.43 352.365 1663.73 405.614C1645.02 458.862 1620.84 506.749 1591.18 549.274C1561.18 591.799 1530.99 617.314 1500.64 625.819C1494.28 627.298 1488.28 626.928 1482.63 624.71C1476.98 622.491 1470.1 619.163 1461.98 614.725C1457.75 612.507 1452.8 609.918 1447.16 606.96C1445.74 609.179 1443.98 611.952 1441.86 615.28C1437.27 621.936 1432.68 628.407 1428.09 634.694C1423.5 641.35 1420.15 645.232 1418.03 646.342C1406.03 650.779 1392.97 648.561 1378.85 639.686C1364.37 630.811 1353.08 619.902 1344.96 606.96C1336.49 594.387 1335.08 584.773 1340.72 578.117C1368.26 551.123 1390.32 520.986 1406.91 487.705C1423.15 454.795 1429.33 429.465 1425.45 411.715C1430.03 406.538 1437.98 405.429 1449.27 408.387C1460.22 411.345 1470.81 417.632 1481.04 427.246C1490.93 437.23 1496.4 449.803 1497.46 464.964C1497.11 478.646 1493.58 495.101 1486.87 514.33C1479.81 533.558 1473.1 549.089 1466.75 560.922C1481.93 552.787 1498.34 531.894 1515.99 498.244C1533.29 464.594 1547.76 427.801 1559.41 387.864C1571.06 348.298 1576 315.017 1574.24 288.023C1572.12 261.399 1559.24 250.675 1535.58 255.852C1507.7 264.727 1479.63 286.729 1451.39 321.858C1423.15 356.988 1394.03 397.664 1364.02 443.886C1352.02 462.375 1339.66 480.864 1326.96 499.354Z" fill="#FDC1C5"/>
<path d="M1024.08 499.354C1021.96 501.942 1018.78 502.497 1014.54 501.018C1010.31 499.908 1005.9 497.505 1001.31 493.807C996.717 490.109 993.187 486.226 990.716 482.159C987.892 478.461 987.186 475.318 988.598 472.729C994.246 463.115 1000.6 451.837 1007.66 438.894C1024.25 408.572 1044.02 375.107 1066.97 338.498C1089.56 301.89 1114.45 268.61 1141.63 238.657C1168.81 209.075 1197.4 189.476 1227.41 179.862C1245.06 175.794 1265.71 177.458 1289.36 184.854C1313.01 192.25 1334.19 203.158 1352.9 217.58C1371.61 232.371 1382.2 248.272 1384.67 265.282C1387.5 305.588 1379.55 352.365 1360.84 405.614C1342.14 458.862 1317.95 506.749 1288.3 549.274C1258.3 591.799 1228.11 617.314 1197.76 625.819C1191.4 627.298 1185.4 626.928 1179.75 624.71C1174.1 622.491 1167.22 619.163 1159.1 614.726C1154.86 612.507 1149.92 609.918 1144.27 606.96C1142.86 609.179 1141.1 611.952 1138.98 615.28C1134.39 621.936 1129.8 628.407 1125.21 634.694C1120.62 641.35 1117.27 645.233 1115.15 646.342C1103.15 650.779 1090.09 648.561 1075.97 639.686C1061.49 630.811 1050.2 619.902 1042.08 606.96C1033.61 594.388 1032.19 584.773 1037.84 578.117C1065.38 551.123 1087.44 520.986 1104.03 487.705C1120.27 454.795 1126.45 429.465 1122.56 411.715C1127.15 406.538 1135.1 405.429 1146.39 408.387C1157.34 411.345 1167.93 417.632 1178.16 427.246C1188.05 437.23 1193.52 449.803 1194.58 464.964C1194.23 478.646 1190.7 495.101 1183.99 514.33C1176.93 533.558 1170.22 549.089 1163.87 560.922C1179.05 552.787 1195.46 531.894 1213.11 498.244C1230.41 464.594 1244.88 427.801 1256.53 387.864C1268.18 348.298 1273.12 315.017 1271.36 288.023C1269.24 261.399 1256.35 250.675 1232.7 255.852C1204.82 264.727 1176.75 286.729 1148.51 321.858C1120.27 356.988 1091.15 397.664 1061.14 443.886C1049.14 462.375 1036.78 480.864 1024.08 499.354Z" fill="#FDC1C5"/>
<path d="M478.679 659.654C437.377 637.837 405.076 613.431 381.778 586.437C358.126 559.813 350.537 519.322 359.009 464.964C364.304 439.079 375.424 400.807 392.368 350.147C407.901 302.815 422.55 253.818 436.318 203.158C450.085 152.868 456.969 110.158 456.969 75.0289C456.616 39.5299 443.731 20.4861 418.314 17.8976C427.139 1.62722 443.378 -3.54973 467.029 2.36678C490.328 7.9135 511.332 23.2594 530.041 48.4046C548.751 73.5498 555.105 107.015 549.104 148.8C536.748 205.007 517.862 268.055 492.446 337.944C477.267 380.839 465.617 416.707 457.498 445.55C446.202 484.377 444.26 516.548 451.673 542.063C459.087 567.948 479.914 587.547 514.156 600.859C514.862 532.449 535.689 451.837 576.638 359.021C617.234 266.206 663.302 202.234 714.841 167.105C728.961 159.709 747.141 158.784 769.38 164.331C791.267 169.878 811.565 179.677 830.274 193.729C848.631 207.781 859.75 223.681 863.633 241.431C866.811 271.013 863.28 307.067 853.043 349.592C864.693 335.17 877.754 317.421 892.227 296.343C920.115 253.818 952.238 213.697 988.598 175.979C998.482 168.214 1012.43 166.55 1030.43 170.987C1048.43 175.425 1064.67 183.745 1079.14 195.948C1093.97 208.15 1101.21 221.462 1100.85 235.884C1094.5 294.31 1075.26 354.769 1043.14 417.262C1011.37 479.755 975.89 528.381 936.706 563.141C915.173 580.521 895.581 586.437 877.93 580.89C859.927 575.714 841.924 566.099 823.92 552.048C817.213 547.61 810.329 542.988 803.269 538.181C800.092 542.988 796.386 548.904 792.149 555.93C787.913 562.586 783.677 569.057 779.441 575.344C775.205 581.63 771.498 586.622 768.321 590.32C759.496 598.455 747.847 599.749 733.374 594.203C718.547 589.026 706.192 580.706 696.308 569.242C686.071 557.779 683.6 546.501 688.895 535.407C731.609 459.972 757.378 395.26 766.203 341.272C774.676 287.653 773.793 255.852 763.556 245.868C751.554 238.103 732.844 250.675 707.428 283.586C681.658 316.866 657.3 359.021 634.355 410.051C611.409 461.081 597.819 509.892 593.583 556.485C588.994 603.077 602.055 635.988 632.766 655.217C641.592 661.133 644.239 670.563 640.709 683.505C637.179 696.447 630.295 709.205 620.058 721.777C609.468 734.72 598.525 743.779 587.228 748.956C575.579 754.503 566.225 752.469 559.164 742.855C553.869 734.72 549.457 727.694 545.927 721.777C539.925 710.684 532.865 700.7 524.746 691.825C516.274 682.95 500.918 672.227 478.679 659.654ZM856.22 462.191C854.455 465.519 853.396 470.695 853.043 477.721C852.337 485.117 853.043 491.958 855.161 498.244C856.926 504.9 860.103 508.783 864.693 509.892C869.282 511.371 875.636 508.043 883.755 499.908C915.526 464.039 942.178 422.994 963.711 376.771C985.245 330.548 996.717 297.638 998.129 278.039C981.185 293.57 958.063 320.934 928.763 360.131C899.111 399.697 874.93 433.717 856.22 462.191Z" fill="#FDC1C5"/>
<path d="M15.3559 340.163C8.29576 340.902 3.70666 337.389 1.58861 329.624C-0.529436 322.228 -0.529437 314.463 1.58861 306.328C3.35365 298.562 6.70722 294.125 11.6493 293.015C26.8287 290.797 41.655 290.242 56.1283 291.351C70.6016 292.461 86.84 296.159 104.843 302.445C106.255 299.487 107.844 296.159 109.609 292.461C117.375 273.602 129.024 251.23 144.557 225.345C159.736 199.461 178.798 179.307 201.744 164.886C217.629 157.121 237.398 156.196 261.049 162.113C284.348 168.029 306.058 178.383 326.179 193.174C346.301 208.335 359.362 225.53 365.363 244.759C371.364 271.383 370.835 300.226 363.775 331.288C356.714 362.719 346.477 391.932 333.063 418.926C320.002 445.92 306.764 466.073 293.35 479.385C288.76 484.193 283.642 488.63 277.994 492.698C275.523 494.546 273.052 496.395 270.581 498.244C273.405 513.775 274.993 529.306 275.346 544.837C275.346 560.368 271.993 575.159 265.285 589.211C255.401 605.111 236.162 613.062 207.569 613.062C178.622 613.431 150.381 604.557 122.847 586.437C95.3122 568.318 78.5443 540.03 72.5432 501.572C69.7191 475.318 70.0721 449.618 73.6022 424.473C76.7793 399.697 81.5449 374.367 87.899 348.483C80.8388 344.415 70.6016 341.272 57.1873 339.053C43.773 337.204 29.8292 337.574 15.3559 340.163ZM277.994 216.471C251.871 232.741 232.103 251.97 218.688 274.156C204.921 296.343 193.448 320.194 184.27 345.709C208.628 362.349 227.161 384.351 239.869 411.715C244.811 405.799 251.342 390.453 259.461 365.677C267.227 341.272 273.581 314.832 278.523 286.359C283.112 257.886 282.936 234.59 277.994 216.471ZM168.385 407.833C163.443 421.884 160.795 438.525 160.442 457.753C159.736 477.352 160.619 495.471 163.09 512.111C165.561 529.121 168.914 540.954 173.15 547.61C193.978 515.439 192.389 468.847 168.385 407.833Z" fill="#FDC1C5"/>
</g>
</svg>
