<svg width="761" height="413" viewBox="0 0 761 413" fill="none" xmlns="http://www.w3.org/2000/svg">
<path d="M7.29289 260.679C7.68342 260.288 8.31658 260.288 8.70711 260.679L15.0711 267.043C15.4616 267.433 15.4616 268.066 15.0711 268.457C14.6805 268.847 14.0474 268.847 13.6569 268.457L8 262.8L2.34315 268.457C1.95262 268.847 1.31946 268.847 0.928932 268.457C0.538408 268.066 0.538408 267.433 0.928932 267.043L7.29289 260.679ZM455 395.386L454.353 394.624L455 395.386ZM581.189 380.882L581.032 379.895L581.189 380.882ZM283.5 209.386V210.386V209.386ZM9 261.386C9 263.58 9.01695 265.729 9.05058 267.833L7.05083 267.865C7.01703 265.75 7 263.59 7 261.386H9ZM9.45045 279.936C9.67431 284.288 9.98025 288.421 10.3652 292.343L8.37474 292.539C7.98655 288.583 7.67841 284.419 7.45309 280.039L9.45045 279.936ZM11.8952 304.386C12.5699 308.623 13.3569 312.555 14.2504 316.198L12.308 316.674C11.4 312.973 10.6025 308.986 9.92007 304.7L11.8952 304.386ZM17.8023 327.781C19.391 331.962 21.1727 335.598 23.1292 338.732L21.4328 339.791C19.3975 336.531 17.5605 332.775 15.9327 328.491L17.8023 327.781ZM30.8628 347.884C34.012 350.555 37.4492 352.424 41.1456 353.584L40.5468 355.492C36.5945 354.252 32.9212 352.252 29.5691 349.409L30.8628 347.884ZM52.8996 355.029C56.6893 354.884 60.6803 354.229 64.8506 353.118L65.3655 355.051C61.0798 356.193 56.9402 356.876 52.9761 357.028L52.8996 355.029ZM76.3476 349.126C79.9226 347.625 83.592 345.867 87.3432 343.881L88.2786 345.649C84.4833 347.658 80.7598 349.443 77.1218 350.97L76.3476 349.126ZM97.9697 337.806C101.362 335.733 104.805 333.512 108.29 331.164L109.408 332.823C105.901 335.185 102.433 337.423 99.0124 339.513L97.9697 337.806ZM118.366 324.12C121.625 321.765 124.912 319.321 128.22 316.805L129.431 318.396C126.111 320.921 122.811 323.375 119.537 325.741L118.366 324.12ZM137.909 309.285C141.094 306.769 144.292 304.202 147.497 301.598L148.758 303.151C145.547 305.759 142.342 308.332 139.149 310.855L137.909 309.285ZM157.008 293.792C160.161 291.181 163.315 288.549 166.464 285.91L167.749 287.443C164.597 290.084 161.44 292.718 158.284 295.332L157.008 293.792ZM175.88 277.997C179.03 275.344 182.17 272.698 185.294 270.073L186.581 271.604C183.458 274.229 180.319 276.874 177.168 279.527L175.88 277.997ZM194.748 262.162C197.942 259.503 201.114 256.88 204.257 254.311L205.523 255.859C202.386 258.424 199.219 261.042 196.027 263.699L194.748 262.162ZM213.853 246.567C217.137 243.957 220.381 241.425 223.577 238.989L224.79 240.579C221.606 243.006 218.372 245.53 215.097 248.133L213.853 246.567ZM233.492 231.648C236.962 229.163 240.363 226.824 243.683 224.658L244.776 226.333C241.483 228.481 238.107 230.803 234.657 233.274L233.492 231.648ZM254.267 218.216C258.11 216.064 261.821 214.214 265.379 212.718L266.154 214.562C262.679 216.022 259.036 217.837 255.244 219.961L254.267 218.216ZM277.254 208.999C279.413 208.597 281.497 208.386 283.5 208.386V210.386C281.637 210.386 279.676 210.582 277.621 210.965L277.254 208.999ZM283.5 208.386C285.534 208.386 287.52 208.476 289.458 208.654L289.276 210.646C287.399 210.474 285.475 210.386 283.5 210.386V208.386ZM300.951 210.859C304.766 212.002 308.367 213.522 311.772 215.378L310.815 217.134C307.528 215.342 304.055 213.877 300.377 212.774L300.951 210.859ZM321.47 221.963C324.439 224.407 327.233 227.134 329.871 230.104L328.375 231.432C325.8 228.532 323.08 225.879 320.199 223.507L321.47 221.963ZM337.065 239.314C339.235 242.45 341.288 245.762 343.238 249.221L341.495 250.203C339.572 246.792 337.552 243.532 335.421 240.453L337.065 239.314ZM348.582 259.564C350.219 263.009 351.779 266.556 353.273 270.183L351.424 270.944C349.941 267.346 348.395 263.832 346.775 260.423L348.582 259.564ZM357.467 281C358.786 284.605 360.055 288.262 361.282 291.951L359.384 292.582C358.162 288.909 356.9 285.271 355.589 281.688L357.467 281ZM364.817 302.987C365.959 306.678 367.07 310.381 368.159 314.076L366.241 314.642C365.153 310.953 364.045 307.258 362.906 303.578L364.817 302.987ZM371.391 325.192C372.469 328.935 373.533 332.646 374.594 336.31L372.673 336.867C371.611 333.201 370.546 329.485 369.469 325.746L371.391 325.192ZM377.858 347.406C378.991 351.175 380.131 354.863 381.289 358.444L379.386 359.06C378.222 355.462 377.079 351.76 375.943 347.982L377.858 347.406ZM385.021 369.366C386.383 373.112 387.783 376.687 389.237 380.056L387.401 380.849C385.928 377.436 384.514 373.824 383.141 370.049L385.021 369.366ZM394.235 390.342C396.221 393.926 398.313 397.12 400.54 399.862L398.988 401.123C396.67 398.269 394.514 394.972 392.485 391.311L394.235 390.342ZM408.77 407.408C411.932 409.402 415.353 410.61 419.103 410.92L418.938 412.913C414.846 412.575 411.119 411.253 407.703 409.099L408.77 407.408ZM430.161 409.465C433.321 408.452 436.695 406.917 440.308 404.804L441.317 406.531C437.603 408.703 434.095 410.304 430.772 411.37L430.161 409.465ZM449.717 398.385C451.227 397.219 452.772 395.966 454.353 394.624L455.647 396.148C454.044 397.51 452.475 398.782 450.939 399.968L449.717 398.385ZM454.353 394.624C455.891 393.316 457.41 392.01 458.909 390.703L460.223 392.211C458.718 393.523 457.193 394.835 455.647 396.148L454.353 394.624ZM467.664 382.872C470.594 380.181 473.441 377.493 476.205 374.81L477.598 376.245C474.82 378.942 471.96 381.642 469.017 384.345L467.664 382.872ZM484.495 366.525C487.278 363.66 489.969 360.8 492.57 357.948L494.048 359.296C491.433 362.164 488.727 365.039 485.93 367.919L484.495 366.525ZM500.272 349.218C502.881 346.159 505.386 343.11 507.792 340.073L509.36 341.315C506.939 344.371 504.418 347.439 501.794 350.516L500.272 349.218ZM514.85 330.807C517.213 327.578 519.463 324.363 521.604 321.166L523.266 322.279C521.109 325.499 518.843 328.736 516.464 331.988L514.85 330.807ZM527.929 311.255C529.985 307.866 531.919 304.499 533.735 301.157L535.492 302.112C533.661 305.483 531.711 308.877 529.639 312.293L527.929 311.255ZM539.072 290.702C540.8 287.086 542.389 283.502 543.844 279.954L545.695 280.714C544.225 284.297 542.62 287.915 540.877 291.564L539.072 290.702ZM547.96 269C549.245 265.231 550.378 261.508 551.365 257.836L553.297 258.356C552.297 262.071 551.151 265.835 549.853 269.645L547.96 269ZM553.997 246.476C554.757 242.556 555.349 238.702 555.781 234.92L557.768 235.147C557.33 238.981 556.73 242.887 555.96 246.857L553.997 246.476ZM556.625 223.249C556.742 219.259 556.676 215.364 556.439 211.57L558.435 211.445C558.676 215.301 558.743 219.258 558.624 223.307L556.625 223.249ZM555.142 199.98C554.499 196.05 553.664 192.252 552.65 188.595L554.577 188.061C555.611 191.789 556.462 195.658 557.115 199.658L555.142 199.98ZM548.881 177.545C547.374 173.864 545.67 170.366 543.789 167.063L545.527 166.074C547.451 169.453 549.193 173.028 550.732 176.787L548.881 177.545ZM537.354 157.384C534.942 154.264 532.348 151.388 529.596 148.773L530.973 147.323C533.802 150.011 536.464 152.962 538.936 156.161L537.354 157.384ZM520.554 141.496C517.314 139.312 513.925 137.439 510.417 135.896L511.222 134.065C514.842 135.657 518.335 137.589 521.672 139.838L520.554 141.496ZM499.44 132.247C495.705 131.386 491.876 130.876 487.984 130.737L488.055 128.739C492.075 128.882 496.03 129.408 499.889 130.298L499.44 132.247ZM476.428 131.409C472.694 131.975 468.928 132.882 465.154 134.149L464.518 132.252C468.4 130.95 472.278 130.015 476.128 129.432L476.428 131.409ZM454.51 138.684C451.192 140.406 447.884 142.419 444.602 144.735L443.449 143.101C446.802 140.734 450.187 138.674 453.589 136.909L454.51 138.684ZM435.515 152.006C434.07 153.305 432.633 154.667 431.207 156.093L429.793 154.679C431.244 153.228 432.706 151.841 434.178 150.519L435.515 152.006ZM431.207 156.093C429.928 157.372 428.669 158.833 427.437 160.464L425.841 159.259C427.121 157.564 428.44 156.031 429.793 154.679L431.207 156.093ZM421.352 170.354C419.683 173.621 418.11 177.213 416.656 181.084L414.784 180.381C416.261 176.448 417.864 172.786 419.57 169.444L421.352 170.354ZM413.01 192.27C411.979 195.938 411.048 199.772 410.232 203.744L408.273 203.341C409.098 199.325 410.04 195.444 411.085 191.729L413.01 192.27ZM408.237 215.324C407.701 219.143 407.27 223.053 406.954 227.032L404.96 226.873C405.28 222.855 405.715 218.905 406.256 215.047L408.237 215.324ZM406.364 238.804C406.284 242.697 406.315 246.632 406.468 250.592L404.469 250.669C404.315 246.669 404.283 242.694 404.365 238.763L406.364 238.804ZM407.278 262.349C407.667 266.242 408.179 270.14 408.822 274.026L406.849 274.353C406.199 270.423 405.681 266.482 405.288 262.548L407.278 262.349ZM411.135 285.568C412.038 289.383 413.078 293.169 414.261 296.909L412.354 297.513C411.155 293.723 410.103 289.89 409.189 286.029L411.135 285.568ZM418.247 307.971C419.724 311.6 421.352 315.166 423.139 318.654L421.359 319.566C419.545 316.025 417.893 312.405 416.395 308.725L418.247 307.971ZM428.97 328.843C431.065 332.133 433.324 335.328 435.755 338.413L434.184 339.651C431.711 336.512 429.413 333.262 427.283 329.918L428.97 328.843ZM443.48 347.232C446.181 350.004 449.051 352.658 452.097 355.177L450.822 356.718C447.72 354.152 444.798 351.45 442.048 348.627L443.48 347.232ZM461.516 362.149C464.719 364.265 468.085 366.249 471.621 368.088L470.698 369.862C467.101 367.991 463.675 365.972 460.414 363.818L461.516 362.149ZM482.277 372.973C485.82 374.393 489.511 375.682 493.354 376.83L492.782 378.746C488.882 377.582 485.133 376.273 481.533 374.829L482.277 372.973ZM504.745 379.713C508.49 380.499 512.364 381.163 516.369 381.695L516.106 383.677C512.052 383.139 508.129 382.467 504.333 381.67L504.745 379.713ZM528.139 382.85C531.921 383.096 535.809 383.233 539.807 383.256L539.795 385.256C535.76 385.232 531.832 385.094 528.01 384.846L528.139 382.85ZM551.562 383.004C555.427 382.821 559.385 382.537 563.44 382.149L563.63 384.14C559.545 384.531 555.555 384.817 551.657 385.002L551.562 383.004ZM575.041 380.787C577.017 380.513 579.014 380.216 581.032 379.895L581.346 381.87C579.315 382.193 577.305 382.492 575.315 382.768L575.041 380.787ZM581.032 379.895C583.104 379.565 585.098 379.184 587.017 378.753L587.456 380.704C585.494 381.145 583.458 381.534 581.346 381.87L581.032 379.895ZM598.028 375.428C601.819 373.944 605.222 372.202 608.268 370.222L609.358 371.899C606.19 373.958 602.665 375.761 598.757 377.291L598.028 375.428ZM617.06 362.863C619.68 360.043 621.894 356.935 623.744 353.56L625.498 354.521C623.573 358.033 621.264 361.278 618.526 364.224L617.06 362.863ZM628.16 342.93C629.246 339.358 630.057 335.576 630.625 331.604L632.605 331.886C632.025 335.947 631.193 339.829 630.074 343.512L628.16 342.93ZM631.602 319.982C631.724 316.201 631.681 312.289 631.495 308.259L633.493 308.167C633.681 312.241 633.725 316.206 633.601 320.047L631.602 319.982ZM630.601 296.525C630.212 292.748 629.725 288.889 629.158 284.958L631.137 284.672C631.708 288.626 632.198 292.512 632.591 296.319L630.601 296.525ZM627.303 273.383C626.638 269.574 625.916 265.711 625.149 261.801L627.112 261.416C627.881 265.337 628.606 269.215 629.273 273.039L627.303 273.383ZM622.794 250.246C621.996 246.458 621.17 242.635 620.327 238.784L622.281 238.356C623.125 242.211 623.952 246.039 624.751 249.834L622.794 250.246ZM617.787 227.28C616.94 223.46 616.086 219.619 615.239 215.764L617.192 215.335C618.039 219.187 618.892 223.026 619.74 226.847L617.787 227.28ZM612.742 204.267C611.922 200.424 611.117 196.574 610.338 192.722L612.299 192.326C613.076 196.169 613.879 200.012 614.698 203.849L612.742 204.267ZM608.089 181.166C607.365 177.281 606.679 173.402 606.04 169.534L608.013 169.208C608.65 173.061 609.334 176.926 610.055 180.799L608.089 181.166ZM604.263 157.86C603.721 153.944 603.24 150.047 602.832 146.176L604.821 145.967C605.227 149.814 605.705 153.689 606.244 157.586L604.263 157.86ZM601.82 134.387C601.561 130.405 601.394 126.459 601.333 122.556L603.332 122.524C603.393 126.392 603.559 130.305 603.816 134.257L601.82 134.387ZM601.487 110.748C601.661 106.77 601.965 102.849 602.413 98.9912L604.4 99.2222C603.957 103.028 603.657 106.902 603.485 110.835L601.487 110.748ZM604.285 87.2456C605.09 83.3299 606.074 79.496 607.254 75.7548L609.161 76.3564C608.003 80.0279 607.036 83.7952 606.244 87.6485L604.285 87.2456ZM611.467 64.6731C613.093 61.0654 614.941 57.5659 617.031 54.1866L618.732 55.2383C616.69 58.541 614.882 61.9633 613.29 65.495L611.467 64.6731ZM623.98 44.4936C626.449 41.505 629.154 38.6379 632.11 35.9021L633.469 37.3699C630.578 40.0455 627.934 42.8479 625.522 45.7675L623.98 44.4936ZM641.263 28.4439C644.391 26.1976 647.737 24.0677 651.313 22.0609L652.292 23.805C648.779 25.7767 645.495 27.867 642.429 30.0685L641.263 28.4439ZM661.96 16.7581C665.404 15.2396 669.025 13.8167 672.83 12.4935L673.487 14.3826C669.731 15.6889 666.16 17.0923 662.767 18.5882L661.96 16.7581ZM684.377 8.94281C687.972 7.97116 691.71 7.0769 695.594 6.26285L696.004 8.22031C692.155 9.02692 688.455 9.91232 684.899 10.8735L684.377 8.94281ZM707.463 4.09967C711.147 3.52292 714.949 3.01065 718.872 2.56473L719.098 4.55194C715.202 4.99481 711.427 5.50339 707.772 6.07559L707.463 4.09967ZM731.01 1.42807C734.702 1.1525 738.491 0.930481 742.381 0.763336L742.467 2.76151C738.597 2.92776 734.829 3.14856 731.159 3.42252L731.01 1.42807ZM754.308 0.428589C756.347 0.400513 758.41 0.386383 760.5 0.386383V2.38638C758.419 2.38638 756.365 2.40045 754.336 2.42841L754.308 0.428589Z" fill="#FD5956"/>
</svg>
