<svg width="553" height="595" viewBox="0 0 553 595" fill="none" xmlns="http://www.w3.org/2000/svg">
<path fill-rule="evenodd" clip-rule="evenodd" d="M279.931 21.3253C370.749 15.1153 473.129 28.8704 526.424 102.595C578.061 174.026 542.384 268.472 520.246 353.762C499.319 434.39 479.393 521.243 407.024 562.611C329.414 606.976 232.089 604.072 152.057 564.231C73.2867 525.019 19.8538 448.37 3.86137 361.914C-11.3417 279.726 19.7568 198.595 72.407 133.64C124.496 69.3773 197.352 26.9719 279.931 21.3253Z" fill="#EBEBEB"/>
<path fill-rule="evenodd" clip-rule="evenodd" d="M279.931 1.32528C370.749 -4.88475 473.129 8.87038 526.424 82.5948C578.061 154.026 542.384 248.472 520.246 333.762C499.319 414.39 479.393 501.243 407.024 542.611C329.414 586.976 232.089 584.072 152.057 544.231C73.2867 505.019 19.8538 428.37 3.86137 341.914C-11.3417 259.726 19.7568 178.595 72.407 113.64C124.496 49.3773 197.352 6.97194 279.931 1.32528Z" fill="#FD5956"/>
</svg>
