<svg width="96" height="46" viewBox="0 0 96 46" fill="none" xmlns="http://www.w3.org/2000/svg">
<path d="M49.5011 12.8392C49.5579 12.7307 49.6544 12.6819 49.7906 12.6927C49.9382 12.7036 50.0858 12.747 50.2334 12.8229C50.3923 12.8989 50.5228 12.9911 50.625 13.0996C50.7272 13.1972 50.7612 13.2785 50.7272 13.3436C50.6931 13.4304 50.6534 13.5172 50.608 13.604C50.3355 14.2006 49.9666 14.96 49.5011 15.8821C49.0471 16.7934 48.5305 17.6938 47.9516 18.5833C47.3726 19.462 46.7766 20.1617 46.1636 20.6824C45.5506 21.1923 44.9603 21.3442 44.3927 21.1381C43.6888 20.8668 43.1553 20.5089 42.792 20.0641C42.4287 19.6193 42.2868 18.9955 42.3663 18.1928C42.355 18.2036 42.3493 18.2145 42.3493 18.2253C41.9747 18.7786 41.5944 19.3101 41.2084 19.82C40.8338 20.319 40.3286 20.894 39.6929 21.5449C39.3296 21.8703 38.8415 22.0222 38.2284 22.0005C37.6154 21.9788 37.0535 21.8269 36.5427 21.5449C36.0205 21.2628 35.7253 20.8885 35.6572 20.4221C35.6231 19.6085 35.8161 18.4857 36.2361 17.0537C36.6448 15.6218 37.1216 14.2766 37.6665 13.0182C38.2001 11.749 38.6258 10.9625 38.9436 10.6587C39.182 10.496 39.5056 10.4634 39.9142 10.5611C40.3343 10.6587 40.6975 10.8214 41.0041 11.0492C41.3106 11.2662 41.4127 11.4832 41.3106 11.7001C41.0495 12.1449 40.6975 12.888 40.2548 13.9294C39.8234 14.9709 39.4204 16.0286 39.0458 17.1025C38.6825 18.1765 38.4782 18.9793 38.4328 19.5108C38.6825 19.424 39.1593 18.8654 39.8632 17.8348C40.567 16.8042 41.3503 15.535 42.2131 14.0271C43.0872 12.5192 43.8932 11.0167 44.6311 9.51965C44.8468 9.16166 45.193 9.03148 45.6698 9.12912C46.1579 9.2159 46.5893 9.41117 46.9639 9.71492C47.3386 10.0187 47.4748 10.3116 47.3726 10.5936C47.0321 11.2988 46.6518 12.2317 46.2317 13.3925C45.823 14.5532 45.4825 15.6977 45.21 16.8259C44.9489 17.9433 44.8581 18.7948 44.9376 19.3806C45.8117 18.7623 46.6688 17.7643 47.5088 16.3865C48.3603 15.0088 49.0244 13.8264 49.5011 12.8392Z" fill="black"/>
<path d="M58.8667 11.9768C59.1959 11.9551 59.5478 12.0364 59.9224 12.2208C60.2971 12.3944 60.5809 12.5626 60.7738 12.7253C60.7171 12.7904 60.6717 12.8338 60.6376 12.8555C60.6036 12.8772 60.5695 12.888 60.5355 12.888C60.5127 12.8772 60.4844 12.8663 60.4503 12.8555C60.4163 12.8338 60.3595 12.8175 60.28 12.8066C60.2119 12.7958 60.1097 12.8012 59.9735 12.8229C59.4967 12.9423 58.7986 13.2677 57.879 13.7993C56.9595 14.32 56.0684 14.8732 55.2056 15.459C54.3428 16.0448 53.7639 16.4788 53.4687 16.7608C53.5368 16.8693 53.605 16.9724 53.6731 17.07C53.832 17.2869 53.9853 17.5093 54.1328 17.7371C54.5642 18.4965 54.6777 19.2559 54.4734 20.0153C54.2691 20.7746 53.849 21.4852 53.2133 22.1469C52.5889 22.7978 51.8624 23.3457 51.0337 23.7904C50.1709 24.2135 49.24 24.3979 48.2411 24.3437C47.2307 24.2894 46.4644 23.9911 45.9422 23.4487C45.42 22.8955 45.4598 22.0818 46.0614 21.0079C46.5723 20.2051 47.2307 19.4512 48.0367 18.746C48.8314 18.0409 49.6544 17.3792 50.5058 16.7608C50.3469 16.5547 50.1936 16.3594 50.0461 16.175C49.6941 15.7519 49.3763 15.3289 49.0925 14.9058C48.8087 14.4718 48.5987 14.0108 48.4624 13.5226C48.2127 12.4053 48.3432 11.3259 48.8541 10.2844C49.3649 9.23217 50.1142 8.38059 51.1018 7.7297C51.431 7.53443 51.8227 7.47477 52.2768 7.5507C52.7308 7.61579 53.1622 7.74597 53.5709 7.94124C53.9909 8.13651 54.3088 8.3155 54.5245 8.47822C55.1034 7.59952 55.6086 6.92693 56.04 6.46046C56.4714 5.99399 56.829 5.6577 57.1128 5.45158C57.2717 5.3648 57.476 5.39734 57.7258 5.54922C57.9755 5.70109 58.2196 5.91805 58.458 6.20011C58.7078 6.47131 58.8837 6.73709 58.9859 6.99745C59.0994 7.2578 59.0881 7.44222 58.9518 7.5507C58.4523 7.89785 57.8734 8.43483 57.2149 9.16166C56.5679 9.88849 56.0286 10.637 55.5973 11.4072C55.1772 12.1775 55.058 12.8012 55.2397 13.2785C54.9672 13.3328 54.621 13.2243 54.2009 12.9531C53.7923 12.6819 53.5141 12.3076 53.3666 11.8303C53.2984 11.4615 53.3439 11.0438 53.5028 10.5773C53.6731 10.1109 53.8263 9.76373 53.9625 9.53592C53.3949 9.54677 52.8954 9.91561 52.4641 10.6424C52.044 11.3584 51.8056 12.1883 51.7489 13.1321C51.7035 14.065 51.9475 14.8624 52.4811 15.5241C52.8444 15.2963 53.2587 15.0251 53.7242 14.7105C54.5756 14.1247 55.4724 13.5552 56.4146 13.0019C57.3568 12.4487 58.1742 12.1069 58.8667 11.9768ZM48.1048 22.3747C48.5589 22.3205 49.0698 22.0547 49.6374 21.5774C50.2163 21.0892 50.6931 20.5414 51.0677 19.9339C51.4424 19.3264 51.5502 18.822 51.3913 18.4206C51.3232 18.4965 51.2494 18.567 51.1699 18.6321C50.5228 19.1962 49.9212 19.782 49.3649 20.3895C48.8087 20.9862 48.3886 21.6479 48.1048 22.3747Z" fill="black"/>
<path d="M74.2943 2.96192C75.1003 3.18974 75.6736 3.57485 76.0141 4.11726C76.3547 4.65966 76.5023 5.19665 76.4569 5.72821C76.4228 6.25977 76.2298 6.62319 75.8779 6.81845C76.0028 5.85296 75.1741 5.21835 73.3918 4.9146C71.6095 4.61085 69.4583 4.64339 66.9381 5.01223C65.1444 7.37713 63.5835 10.0078 62.2553 12.9043C60.9385 15.8007 60.1665 18.3067 59.9395 20.4221C59.7124 22.5266 60.3595 23.5843 61.8807 23.5952C61.086 24.322 60.0984 24.4522 58.9178 23.9857C57.7258 23.5192 57.0049 22.4561 56.7552 20.7963C56.6984 19.3427 57.2206 17.2273 58.3218 14.4501C59.4229 11.6622 60.7682 8.89588 62.3575 6.15129C61.052 6.60691 59.8941 7.17102 58.8837 7.84361C58.6794 7.95209 58.441 7.93039 58.1685 7.77852C57.8847 7.61579 57.6236 7.38798 57.3852 7.09508C57.1468 6.80218 56.9879 6.52555 56.9084 6.26519C56.8176 5.99399 56.8687 5.80957 57.0617 5.71194C59.2072 4.7573 61.5401 3.9925 64.0603 3.41755C64.9798 2.06152 65.8426 0.987554 66.6486 0.195637C66.9778 -0.0538711 67.4205 -0.0647193 67.9768 0.163093C68.5331 0.390904 68.9758 0.727198 69.305 1.17197C69.6342 1.61675 69.6172 2.0344 69.2539 2.42494C69.1744 2.50088 69.095 2.57681 69.0155 2.65275C71.0021 2.50088 72.7617 2.60393 74.2943 2.96192ZM71.2803 12.709C71.4506 12.5354 71.6435 12.4704 71.8592 12.5137C72.0863 12.5463 72.2679 12.6385 72.4041 12.7904C72.5517 12.9314 72.5915 13.0724 72.5233 13.2135C72.1487 13.8427 71.6265 14.7268 70.9567 15.8658C70.2983 16.994 69.4923 17.9812 68.5387 18.8274C67.5965 19.6735 66.7564 20.216 66.0185 20.4546C65.3034 20.6282 64.5484 20.5197 63.7538 20.1292C62.9591 19.7278 62.5675 19.1637 62.5788 18.4369C62.7037 17.4714 63.1181 16.1533 63.8219 14.4827C64.5371 12.8121 65.3317 11.3964 66.2059 10.2356C66.4216 10.0295 66.7962 9.9807 67.3297 10.0892C67.8633 10.1977 68.3344 10.3984 68.7431 10.6913C69.1517 10.9733 69.2766 11.2662 69.1177 11.57C66.4726 15.8441 65.5588 17.9487 66.3761 17.8836C67.2048 17.8077 68.8396 16.0828 71.2803 12.709ZM70.0372 9.27557C69.8215 9.49253 69.5093 9.57932 69.1007 9.53592C68.7033 9.48168 68.3401 9.35693 68.0109 9.16166C67.6816 8.96639 67.5284 8.75485 67.5511 8.52704C67.7214 7.887 67.9541 7.26865 68.2492 6.672C68.5558 6.07535 68.7998 5.64685 68.9815 5.38649C69.2426 5.13698 69.6512 5.06105 70.2075 5.15868C70.7638 5.25631 71.2462 5.44616 71.6549 5.72821C72.0636 5.99941 72.1771 6.29232 71.9955 6.60691C71.8819 6.75879 71.7457 6.94863 71.5868 7.17644C71.337 7.52358 71.0703 7.89242 70.7865 8.28296C70.5027 8.66264 70.2529 8.99351 70.0372 9.27557Z" fill="black"/>
<path d="M83.5917 12.5788C83.6712 12.4487 83.7904 12.389 83.9493 12.3998C84.1196 12.3998 84.2899 12.4487 84.4601 12.5463C84.6418 12.6439 84.7837 12.747 84.8858 12.8555C84.9994 12.9639 85.0448 13.0507 85.0221 13.1158C84.3636 14.4176 83.4839 15.8116 82.3827 17.2978C81.2929 18.7731 80.2485 19.7929 79.2495 20.357C78.8408 20.5306 78.364 20.5739 77.8191 20.4872C77.2856 20.3895 76.7974 20.2105 76.3547 19.9502C75.912 19.6898 75.6452 19.4078 75.5544 19.104C75.4522 18.6159 75.4806 17.9704 75.6395 17.1676C75.8098 16.3649 76.0085 15.5946 76.2355 14.857C76.4625 14.1084 76.6328 13.5823 76.7463 13.2785C76.7577 13.246 76.7691 13.2189 76.7804 13.1972C75.8155 14.0433 74.7654 15.2855 73.6302 16.9235C72.5063 18.5616 71.6663 19.9231 71.11 21.0079C70.9397 21.2682 70.6162 21.3713 70.1394 21.317C69.6626 21.2628 69.2199 21.1218 68.8112 20.894C68.4025 20.6553 68.2209 20.4004 68.2663 20.1292C68.5614 19.0227 69.0723 17.4442 69.7988 15.3939C70.5254 13.3328 71.4052 11.3638 72.4382 9.48711C72.6198 9.1942 72.8753 9.04233 73.2045 9.03148C73.545 9.02063 73.8856 9.09657 74.2262 9.25929C74.5667 9.42202 74.8392 9.61728 75.0435 9.8451C75.2479 10.0621 75.316 10.2573 75.2479 10.4309C74.7938 11.2988 74.334 12.1286 73.8686 12.9206C73.3464 13.8101 73.0342 14.4013 72.932 14.6942C73.6699 13.6854 74.4646 12.747 75.316 11.8791C76.1674 11.0004 76.9847 10.3224 77.768 9.8451C78.1654 9.64983 78.6195 9.63356 79.1303 9.79628C79.6411 9.94815 80.0669 10.1977 80.4074 10.5448C80.748 10.8811 80.8558 11.2228 80.731 11.57C80.6401 11.7761 80.538 12.0093 80.4244 12.2697C79.9704 13.246 79.4936 14.3579 78.9941 15.6055C78.5059 16.8422 78.2392 17.8782 78.1937 18.7135C79.1019 18.2145 80.0441 17.4009 81.0204 16.2726C81.9967 15.1336 82.8538 13.9023 83.5917 12.5788Z" fill="black"/>
<path d="M43.4793 29.6133C43.5937 29.4935 43.7766 29.4636 44.0282 29.5235C44.2797 29.5714 44.497 29.6851 44.68 29.8648C44.8629 30.0444 44.9087 30.2539 44.8172 30.4934C44.2454 31.5353 43.5708 32.7029 42.7932 33.9962C42.0271 35.2895 41.2152 36.481 40.3576 37.5707C39.5 38.6605 38.6481 39.4329 37.8019 39.8879C37.07 40.1873 36.3782 40.1154 35.7264 39.6724C35.0861 39.2173 34.7144 38.6844 34.6115 38.0737C34.5887 37.6785 34.6401 37.1636 34.7659 36.5289C34.8917 35.8822 35.0346 35.2835 35.1947 34.7326C34.8288 35.1877 34.4171 35.7445 33.9597 36.4032C33.125 37.6965 32.1359 38.9299 30.9924 40.1035C30.6836 40.3549 30.2434 40.4088 29.6717 40.2651C29.0999 40.1214 28.5796 39.858 28.1108 39.4748C27.642 39.0916 27.4133 38.6665 27.4247 38.1994C27.6305 36.3433 28.2423 34.4213 29.26 32.4334C30.2777 30.4455 31.404 28.9008 32.639 27.7991C33.3251 27.2482 33.9483 27.0566 34.5086 27.2242C35.0804 27.3919 35.6578 27.6973 36.241 28.1403C36.4468 28.284 36.6641 28.4337 36.8928 28.5894C37.1787 28.2541 37.4645 27.9068 37.7504 27.5476C37.9448 27.2841 38.1506 27.0207 38.3679 26.7572C38.6309 26.4938 38.9968 26.4399 39.4657 26.5956C39.9459 26.7512 40.3519 27.0147 40.6835 27.3859C41.0151 27.7452 41.1008 28.1044 40.9408 28.4637C39.4428 31.206 38.4937 33.3076 38.0935 34.7686C37.7047 36.2295 37.6875 36.966 38.042 36.978C38.9454 36.9181 40.7578 34.4632 43.4793 29.6133ZM35.3319 30.9784C35.4005 30.8707 35.4348 30.703 35.4348 30.4755C35.4348 30.248 35.3948 30.0384 35.3148 29.8468C35.2347 29.6432 35.1147 29.5235 34.9546 29.4875C34.7945 29.4396 34.5887 29.5474 34.3371 29.8109C33.3194 30.9485 32.4675 32.2538 31.7814 33.7267C31.0953 35.1877 30.7294 36.2295 30.6836 36.8522C31.244 36.3612 32.0101 35.4871 32.9821 34.2297C33.954 32.9723 34.7373 31.8885 35.3319 30.9784Z" fill="black"/>
<path d="M53.016 29.8288C53.0846 29.745 53.1875 29.727 53.3248 29.7749C53.462 29.8109 53.6049 29.8887 53.7536 30.0085C53.9022 30.1282 54.0166 30.2539 54.0966 30.3857C54.1881 30.5054 54.211 30.6072 54.1652 30.691C53.9823 31.0024 53.7764 31.3676 53.5477 31.7868C53.0103 32.7687 52.3699 33.8525 51.6267 35.038C50.8948 36.2235 50.0887 37.3013 49.2082 38.2713C48.3277 39.2293 47.4015 39.864 46.4295 40.1753C45.8578 40.307 45.1888 40.2532 44.4227 40.0137C43.6565 39.7741 42.9705 39.4209 42.3644 38.9539C41.7584 38.4748 41.4153 37.9599 41.3353 37.4091C41.2438 36.1038 41.5011 34.5889 42.1071 32.8645C42.7132 31.1401 43.4965 29.5893 44.457 28.2122C45.429 26.8351 46.4066 26.0088 47.39 25.7333C47.5959 25.6854 47.7903 25.6974 47.9732 25.7693C48.1562 25.8411 48.3792 25.9489 48.6422 26.0926C48.7794 26.1645 48.9395 26.2483 49.1224 26.3441C49.1682 26.2722 49.2253 26.1824 49.294 26.0746C49.4426 25.8591 49.5913 25.6495 49.7399 25.4459C49.8886 25.2304 49.9972 25.1047 50.0658 25.0687C50.4546 24.925 50.8777 24.9969 51.3351 25.2843C51.8039 25.5717 52.1698 25.9249 52.4328 26.3441C52.7073 26.7512 52.753 27.0626 52.5701 27.2781C51.6781 28.1523 50.9635 29.1283 50.426 30.206C49.9 31.2718 49.6999 32.0921 49.8257 32.6669C49.677 32.8346 49.4197 32.8705 49.0538 32.7747C48.6993 32.6789 48.3563 32.4753 48.0247 32.164C47.7045 31.8406 47.5273 31.4335 47.493 30.9425C47.5044 30.4994 47.6187 29.9665 47.836 29.3438C48.0647 28.7211 48.282 28.2182 48.4878 27.835C47.9961 28.0984 47.4644 28.775 46.8926 29.8648C46.3323 30.9545 45.8635 32.146 45.4861 33.4393C45.1088 34.7207 44.9487 35.7984 45.0059 36.6726C45.0745 37.5348 45.4918 37.8821 46.258 37.7144C47.1613 37.427 48.0704 36.7145 48.9852 35.5769C49.9 34.4392 50.8434 33.122 51.8154 31.6251C52.2041 31.0263 52.6044 30.4276 53.016 29.8288Z" fill="black"/>
<path d="M62.8272 29.8288C62.8958 29.745 62.9987 29.727 63.1359 29.7749C63.2731 29.8109 63.4161 29.8887 63.5647 30.0085C63.7134 30.1282 63.8277 30.2539 63.9078 30.3857C63.9992 30.5054 64.0221 30.6072 63.9764 30.691C63.7934 31.0024 63.5876 31.3676 63.3589 31.7868C62.8215 32.7687 62.1811 33.8525 61.4378 35.038C60.706 36.2235 59.8998 37.3013 59.0193 38.2713C58.1389 39.2293 57.2126 39.864 56.2407 40.1753C55.6689 40.307 55 40.2532 54.2338 40.0137C53.4677 39.7741 52.7816 39.4209 52.1756 38.9539C51.5695 38.4748 51.2265 37.9599 51.1464 37.4091C51.0549 36.1038 51.3122 34.5889 51.9183 32.8645C52.5243 31.1401 53.3076 29.5893 54.2681 28.2122C55.2401 26.8351 56.2178 26.0088 57.2012 25.7333C57.407 25.6854 57.6014 25.6974 57.7844 25.7693C57.9673 25.8411 58.1903 25.9489 58.4533 26.0926C58.5905 26.1645 58.7506 26.2483 58.9336 26.3441C58.9793 26.2722 59.0365 26.1824 59.1051 26.0746C59.2538 25.8591 59.4024 25.6495 59.5511 25.4459C59.6997 25.2304 59.8084 25.1047 59.877 25.0687C60.2658 24.925 60.6888 24.9969 61.1462 25.2843C61.6151 25.5717 61.981 25.9249 62.244 26.3441C62.5184 26.7512 62.5642 27.0626 62.3812 27.2781C61.4893 28.1523 60.7746 29.1283 60.2372 30.206C59.7112 31.2718 59.511 32.0921 59.6368 32.6669C59.4882 32.8346 59.2309 32.8705 58.865 32.7747C58.5105 32.6789 58.1674 32.4753 57.8358 32.164C57.5157 31.8406 57.3384 31.4335 57.3041 30.9425C57.3155 30.4994 57.4299 29.9665 57.6472 29.3438C57.8759 28.7211 58.0931 28.2182 58.2989 27.835C57.8072 28.0984 57.2755 28.775 56.7038 29.8648C56.1435 30.9545 55.6746 32.146 55.2973 33.4393C54.9199 34.7207 54.7598 35.7984 54.817 36.6726C54.8856 37.5348 55.303 37.8821 56.0691 37.7144C56.9725 37.427 57.8816 36.7145 58.7964 35.5769C59.7112 34.4392 60.6545 33.122 61.6265 31.6251C62.0153 31.0263 62.4155 30.4276 62.8272 29.8288Z" fill="black"/>
<path d="M80.4941 24.6376C81.832 25.3442 82.8783 26.1345 83.633 27.0087C84.3991 27.8709 84.645 29.1822 84.3705 30.9425C84.199 31.7808 83.8388 33.0202 83.2899 34.6608C82.7868 36.1936 82.3123 37.7803 81.8663 39.4209C81.4203 41.0495 81.1973 42.4326 81.1973 43.5703C81.2088 44.7199 81.6262 45.3366 82.4495 45.4204C82.1636 45.9473 81.6376 46.115 80.8715 45.9234C80.1168 45.7437 79.4364 45.2468 78.8303 44.4325C78.2243 43.6182 78.0184 42.5344 78.2128 41.1812C78.6131 39.361 79.2248 37.3193 80.0481 35.056C80.5398 33.6668 80.9172 32.5053 81.1802 31.5712C81.5461 30.3138 81.609 29.272 81.3689 28.4457C81.1287 27.6075 80.4541 26.9728 79.3449 26.5417C79.322 28.7571 78.6474 31.3676 77.3209 34.3734C76.0059 37.3791 74.5136 39.4508 72.8442 40.5885C72.3868 40.828 71.7979 40.8579 71.0775 40.6783C70.3685 40.4986 69.711 40.1813 69.1049 39.7262C68.5103 39.2712 68.1501 38.7563 68.0243 38.1815C67.9214 37.2235 68.0358 36.0559 68.3674 34.6787C67.99 35.1458 67.5669 35.7206 67.0981 36.4032C66.1948 37.7803 65.1542 39.0796 63.9764 40.3011C63.6562 40.5525 63.2045 40.6064 62.6213 40.4627C62.0382 40.319 61.5122 40.0496 61.0433 39.6544C60.5631 39.2592 60.3286 38.8281 60.3401 38.3611C60.5459 36.469 61.1691 34.5111 62.2097 32.4873C63.2388 30.4635 64.388 28.8888 65.6573 27.7631C66.3548 27.2003 66.9895 27.0087 67.5612 27.1883C68.1444 27.356 68.7276 27.6673 69.3108 28.1224C69.528 28.2661 69.751 28.4158 69.9797 28.5714C70.0826 28.4158 70.2027 28.2242 70.3399 27.9966C70.4771 27.7811 70.6143 27.5715 70.7516 27.3679C70.8888 27.1644 71.0088 27.0027 71.1118 26.883C71.3976 26.6195 71.775 26.5776 72.2438 26.7572C72.7241 26.9249 73.1243 27.1943 73.4445 27.5655C73.7761 27.9368 73.8561 28.302 73.6846 28.6613C72.301 31.1042 71.4662 33.1998 71.1804 34.9482C70.9059 36.6846 70.9345 37.7144 71.2661 38.0378C71.6549 38.2892 72.261 37.8821 73.0843 36.8163C73.919 35.7385 74.708 34.3734 75.4513 32.7208C76.1946 31.0683 76.6348 29.4875 76.772 27.9787C76.9207 26.4698 76.4976 25.404 75.5028 24.7813C75.2169 24.5897 75.1311 24.2844 75.2455 23.8652C75.3598 23.4461 75.5828 23.033 75.9144 22.6258C76.2575 22.2067 76.612 21.9133 76.9779 21.7456C77.3552 21.566 77.6582 21.6319 77.8869 21.9432C78.0585 22.2067 78.2014 22.4342 78.3158 22.6258C78.5101 22.9851 78.7388 23.3084 79.0019 23.5958C79.2763 23.8832 79.7737 24.2305 80.4941 24.6376ZM68.2645 31.0323C68.3216 30.9246 68.3559 30.7569 68.3674 30.5294C68.3903 30.2899 68.3674 30.0683 68.2988 29.8648C68.2416 29.6492 68.1387 29.5235 67.99 29.4875C67.8414 29.4396 67.6355 29.5474 67.3725 29.8109C66.3434 30.9725 65.4801 32.3017 64.7825 33.7986C64.085 35.2955 63.7134 36.3612 63.6676 36.9959C64.2165 36.493 64.9655 35.6068 65.9146 34.3375C66.8751 33.0561 67.6584 31.9544 68.2645 31.0323Z" fill="black"/>
<path d="M95.5024 34.9841C95.7311 34.9602 95.8798 35.0739 95.9484 35.3254C96.017 35.5649 96.017 35.8164 95.9484 36.0798C95.8912 36.3313 95.7826 36.475 95.6225 36.5109C95.1308 36.5828 94.6505 36.6007 94.1817 36.5648C93.7129 36.5289 93.1869 36.4091 92.6037 36.2056C92.5579 36.3014 92.5065 36.4091 92.4493 36.5289C92.1977 37.1396 91.8204 37.8641 91.3172 38.7024C90.8255 39.5406 90.2081 40.1933 89.4648 40.6603C88.9502 40.9118 88.3099 40.9417 87.5437 40.7501C86.789 40.5585 86.0858 40.2232 85.434 39.7442C84.7822 39.2532 84.3591 38.6964 84.1647 38.0737C83.9703 37.2115 83.9875 36.2774 84.2162 35.2715C84.4449 34.2536 84.7765 33.3076 85.211 32.4334C85.6341 31.5592 86.0629 30.9066 86.4974 30.4755C86.6461 30.3198 86.8119 30.1761 86.9949 30.0444C87.0749 29.9845 87.1549 29.9246 87.235 29.8648C87.1435 29.3618 87.092 28.8588 87.0806 28.3559C87.0806 27.8529 87.1892 27.3739 87.4065 26.9189C87.7267 26.404 88.3499 26.1465 89.2761 26.1465C90.2138 26.1345 91.1286 26.4219 92.0205 27.0087C92.9124 27.5955 93.4556 28.5116 93.65 29.757C93.7414 30.6072 93.73 31.4395 93.6157 32.2538C93.5127 33.0561 93.3584 33.8764 93.1525 34.7147C93.3812 34.8464 93.7129 34.9482 94.1474 35.02C94.5819 35.0799 95.0336 35.0679 95.5024 34.9841ZM86.9949 38.9898C87.841 38.4629 88.4814 37.8402 88.9159 37.1217C89.3619 36.4032 89.7335 35.6308 90.0308 34.8045C89.2418 34.2656 88.6415 33.5531 88.2298 32.6669C88.0697 32.8585 87.8582 33.3555 87.5952 34.1578C87.3436 34.9482 87.1378 35.8044 86.9777 36.7265C86.829 37.6486 86.8348 38.403 86.9949 38.9898ZM90.5454 32.7927C90.7055 32.3376 90.7912 31.7987 90.8027 31.176C90.8255 30.5413 90.797 29.9546 90.7169 29.4157C90.6369 28.8648 90.5282 28.4816 90.391 28.2661C89.7164 29.3079 89.7678 30.8168 90.5454 32.7927Z" fill="black"/>
<path fill-rule="evenodd" clip-rule="evenodd" d="M28.1494 3.4177C34.0447 7.2279 35.9398 14.9781 32.4679 21.0788L24.1534 35.6884C22.3308 38.8909 19.2825 40.8755 15.9844 41.4702C17.2012 38.9224 18.4958 36.4362 19.8683 34.0116C21.6383 30.8739 23.3706 28.4911 25.065 26.8629C25.95 26.0866 26.7757 25.6607 27.542 25.5852C28.3191 25.5097 28.8317 25.7092 29.08 26.1836C29.3498 25.6877 29.2418 25.2617 28.7562 24.9059C28.2813 24.5501 27.6013 24.3183 26.7163 24.2105C25.8421 24.1026 24.9247 24.1727 23.9642 24.4207C23.0036 24.6687 22.1726 25.1485 21.471 25.8602C19.8629 27.6285 18.1091 30.4319 16.2095 34.2704C15.1586 36.4062 14.0342 38.8541 12.8362 41.6142C11.8263 41.5257 10.8215 41.3066 9.84835 40.9523C9.90732 40.5857 9.96629 40.2291 10.0253 39.8826C10.1332 39.2896 10.2195 38.7774 10.2843 38.3461C10.3167 38.1628 10.3436 37.9741 10.3652 37.78C10.5595 36.6263 10.716 35.4295 10.8347 34.1895C10.9642 32.9388 10.9642 31.7797 10.8347 30.7122C10.7052 29.634 10.3436 28.766 9.75004 28.1083C9.16723 27.4398 8.26063 27.1055 7.03025 27.1055C5.22786 27.181 3.60893 27.8603 2.17349 29.1434C1.39381 29.8403 0.690549 30.6231 0.0637077 31.4919C-0.173168 29.8241 0.248004 28.0683 1.36922 26.6462C1.96887 25.8857 2.38738 24.9985 2.59297 24.0521L4.21273 16.5956C4.93051 13.2913 6.5749 10.2599 8.95333 7.85645L11.5587 5.22371C15.9646 0.771375 22.8886 0.0176556 28.1494 3.4177ZM7.38642 37.0684C7.2624 37.7292 7.12298 38.513 6.96818 39.4199C6.71915 39.2392 6.47485 39.0473 6.23588 38.8441L2.24556 35.4508C1.95417 35.203 1.69046 34.9344 1.45483 34.6491C1.57361 34.3767 1.69984 34.1049 1.83352 33.8337C2.53505 32.3996 3.32832 31.1974 4.21333 30.227C5.09834 29.2566 5.96716 28.739 6.81979 28.6744C7.47816 28.6851 7.87749 29.1326 8.0178 30.0168C8.1581 30.8901 8.14731 31.9737 7.98542 33.2676C7.82352 34.5507 7.62386 35.8176 7.38642 37.0684ZM17.8309 17.9217C19.9044 17.4124 21.8403 17.1382 23.6386 17.099C23.5025 17.2005 23.3598 17.304 23.2105 17.4092C22.1738 18.2068 20.9492 19.054 19.5366 19.9508C18.1289 20.8393 16.5181 21.6065 14.7044 22.2525C11.6463 23.2644 9.55795 23.7149 8.43931 23.6038C7.32068 23.4928 7.08757 23.0578 7.73999 22.2989C8.39242 21.5399 9.84697 20.6838 12.1037 19.7304C13.8533 19.0254 15.7624 18.4225 17.8309 17.9217ZM13.8605 15.4085C14.5949 15.5581 15.2486 15.5554 15.8215 15.4004C15.0281 15.3516 14.4102 15.106 13.9677 14.6636C13.5252 14.2213 13.3585 13.729 13.4676 13.1868C13.7501 12.1611 14.5115 11.2348 15.7517 10.4076C16.9969 9.57215 18.451 8.89476 20.1138 8.3755C21.7767 7.85623 23.3767 7.5474 24.9138 7.449C26.4509 7.35061 27.6591 7.52385 28.5385 7.96873C29.2684 8.40683 29.5847 8.98993 29.4874 9.71802C29.4032 10.4424 29.0956 11.2019 28.5648 11.9965C28.0389 12.7827 27.4849 13.4858 26.9029 14.1058C26.334 14.722 25.9323 15.1368 25.6978 15.3503C23.2964 15.2027 20.9685 15.276 18.714 15.5703C16.4726 15.8608 14.4795 16.3263 12.7348 16.9668C9.88207 18.0397 7.88098 19.1275 6.73148 20.2302C6.00499 20.891 5.55028 21.5275 5.36733 22.1397C5.17947 22.7603 5.22309 23.3224 5.49819 23.826C6.07635 24.8605 7.32482 25.5268 9.2436 25.8249C11.1624 26.1229 13.4325 25.8488 16.054 25.0024C18.5292 24.1063 20.8102 22.9709 22.8971 21.5961C24.9888 20.213 26.6931 18.8834 28.0098 17.6073C28.4203 17.5613 28.9394 17.5826 29.5669 17.6714C30.2026 17.7648 30.8533 17.9171 31.5188 18.1282C31.4376 17.7238 31.2481 17.3361 30.9503 16.965C30.6573 16.5854 30.2158 16.2724 29.6258 16.0259C30.4438 15.059 31.0581 14.0937 31.4687 13.1299C31.8925 12.1624 31.9689 11.1985 31.698 10.2383C31.4402 9.27437 30.7062 8.31902 29.4959 7.37225C28.0456 6.31119 26.3833 5.70589 24.5091 5.55633C22.6349 5.40677 20.7605 5.57606 18.8857 6.06418C17.0109 6.5523 15.3483 7.23962 13.8979 8.12615C12.4524 9.00428 11.4258 9.9531 10.8182 10.9726C10.4138 11.7385 10.3278 12.4283 10.5604 13.0421C10.8061 13.6521 11.2373 14.1607 11.8538 14.5679C12.4704 14.975 13.1393 15.2552 13.8605 15.4085Z" fill="#FD5956"/>
</svg>
