<svg width="124" height="104" viewBox="0 0 124 104" fill="none" xmlns="http://www.w3.org/2000/svg">
<path d="M114.003 88.0132H9.9975C7.34757 88.0081 4.80764 86.953 2.93386 85.079C1.06007 83.2049 0.00512065 80.6647 0 78.0144V9.99886C0.00512065 7.34857 1.06007 4.8083 2.93386 2.93426C4.80764 1.06021 7.34757 0.00512135 9.9975 0H114.003C116.652 0.00512135 119.192 1.06021 121.066 2.93426C122.94 4.8083 123.995 7.34857 124 9.99886V78.0144C123.995 80.6647 122.94 83.2049 121.066 85.079C119.192 86.953 116.652 88.0081 114.003 88.0132ZM9.9975 3.99179C8.40454 3.99179 6.87683 4.62468 5.75044 5.75122C4.62405 6.87777 3.99125 8.40569 3.99125 9.99886V78.0144C3.99125 78.8023 4.14674 79.5825 4.44882 80.3103C4.7509 81.038 5.19362 81.6989 5.75161 82.2552C6.3096 82.8114 6.97187 83.2521 7.70047 83.5519C8.42907 83.8516 9.20966 84.0046 9.9975 84.0021H114.003C114.79 84.0046 115.571 83.8516 116.3 83.5519C117.028 83.2521 117.69 82.8114 118.248 82.2552C118.806 81.6989 119.249 81.038 119.551 80.3103C119.853 79.5825 120.009 78.8023 120.009 78.0144V9.99886C120.009 8.40569 119.376 6.87777 118.25 5.75122C117.123 4.62468 115.595 3.99179 114.003 3.99179H9.9975Z" fill="#FD5956"/>
<path d="M37.9944 86.0171H34.0031V102.023H37.9944V86.0171Z" fill="#FD5956"/>
<path d="M89.9969 86.0171H86.0057V102.023H89.9969V86.0171Z" fill="#FD5956"/>
<path d="M93.9881 100.008H29.9925V104H93.9881V100.008Z" fill="#FD5956"/>
<path d="M122.004 72.0071H1.99568V75.9989H122.004V72.0071Z" fill="#FD5956"/>
<path d="M61.9999 60.0707C57.6484 60.0746 53.3934 58.7882 49.7726 56.3743C46.1518 53.9604 43.3277 50.5272 41.6572 46.5086C39.9866 42.4899 39.5446 38.0662 40.387 33.7965C41.2294 29.5267 43.3183 25.6024 46.3899 22.5196C49.4614 19.4368 53.3778 17.3338 57.644 16.4763C61.9102 15.6188 66.3348 16.0453 70.3587 17.7019C74.3827 19.3585 77.8253 22.1709 80.2516 25.7837C82.678 29.3965 83.9791 33.6475 83.9906 37.9996C83.9957 40.8929 83.4309 43.7589 82.3285 46.434C81.2261 49.109 79.6077 51.5407 77.5657 53.5902C75.5237 55.6397 73.0981 57.2669 70.4273 58.3788C67.7565 59.4907 64.8929 60.0657 61.9999 60.0707ZM61.9999 20.0559C58.44 20.0559 54.96 21.1117 52 23.0898C49.04 25.0678 46.733 27.8793 45.3707 31.1687C44.0084 34.4581 43.6519 38.0777 44.3464 41.5697C45.0409 45.0617 46.7552 48.2694 49.2725 50.787C51.7897 53.3046 54.9969 55.0191 58.4884 55.7137C61.98 56.4083 65.5991 56.0518 68.888 54.6893C72.177 53.3268 74.9881 51.0194 76.9659 48.059C78.9437 45.0986 79.9993 41.6182 79.9993 38.0577C80.0044 35.6895 79.5427 33.3435 78.6407 31.1539C77.7387 28.9643 76.414 26.9739 74.7423 25.2966C73.0707 23.6193 71.0849 22.288 68.8984 21.3788C66.712 20.4696 64.3678 20.0003 61.9999 19.9978V20.0559Z" fill="#FD5956"/>
<path d="M35.9987 60.0708C31.6481 60.0707 27.395 58.7812 23.7767 56.3649C20.1585 53.9486 17.3374 50.5141 15.6698 46.4951C14.0022 42.4762 13.5629 38.0531 14.4075 33.7846C15.2521 29.5161 17.3426 25.5936 20.4149 22.5128C23.4872 19.4319 27.4036 17.3308 31.6693 16.4748C35.935 15.6189 40.3586 16.0466 44.3814 17.7038C48.4042 19.361 51.8457 22.1734 54.2712 25.7857C56.6966 29.3981 57.9973 33.6484 58.0087 37.9996C58.0138 40.8946 57.4484 43.7622 56.3448 46.4385C55.2413 49.1148 53.6211 51.5473 51.5771 53.5971C49.533 55.6468 47.105 57.2736 44.432 58.3844C41.759 59.4952 38.8933 60.0682 35.9987 60.0708ZM35.9987 20.0559C32.4388 20.0559 28.9588 21.1117 25.9988 23.0898C23.0388 25.0678 20.7318 27.8793 19.3695 31.1688C18.0072 34.4582 17.6507 38.0777 18.3452 41.5697C19.0397 45.0617 20.754 48.2694 23.2713 50.787C25.7885 53.3046 28.9957 55.0191 32.4872 55.7137C35.9788 56.4083 39.5979 56.0518 42.8868 54.6893C46.1758 53.3268 48.9869 51.0194 50.9647 48.059C52.9425 45.0986 53.9981 41.6182 53.9981 38.0578C54.0032 35.6895 53.5415 33.3436 52.6395 31.1539C51.7375 28.9643 50.4128 26.9739 48.7411 25.2966C47.0695 23.6194 45.0837 22.288 42.8972 21.3788C40.7108 20.4696 38.3666 20.0003 35.9987 19.9978V20.0559Z" fill="#FD5956"/>
<path d="M88.0013 60.0707C83.6498 60.0746 79.3948 58.7882 75.774 56.3743C72.1532 53.9604 69.3291 50.5272 67.6585 46.5086C65.988 42.4899 65.5459 38.0662 66.3883 33.7965C67.2307 29.5267 69.3196 25.6024 72.3912 22.5196C75.4628 19.4368 79.3791 17.3338 83.6453 16.4763C87.9115 15.6188 92.3362 16.0453 96.3601 17.7019C100.384 19.3585 103.827 22.1709 106.253 25.7837C108.679 29.3965 109.98 33.6475 109.992 37.9996C109.997 43.8414 107.684 49.4465 103.561 53.5846C99.4384 57.7226 93.8422 60.0553 88.0013 60.0707ZM88.0013 20.0559C84.4413 20.0559 80.9613 21.1117 78.0014 23.0898C75.0414 25.0678 72.7344 27.8793 71.372 31.1687C70.0097 34.4581 69.6533 38.0777 70.3478 41.5697C71.0423 45.0617 72.7565 48.2694 75.2738 50.787C77.7911 53.3046 80.9982 55.0191 84.4898 55.7137C87.9813 56.4083 91.6004 56.0518 94.8893 54.6893C98.1783 53.3268 100.989 51.0194 102.967 48.059C104.945 45.0986 106.001 41.6182 106.001 38.0577C106.006 35.6895 105.544 33.3435 104.642 31.1539C103.74 28.9643 102.415 26.9739 100.744 25.2966C99.072 23.6193 97.0862 22.288 94.8998 21.3788C92.7133 20.4696 90.3692 20.0003 88.0013 19.9978V20.0559Z" fill="#FD5956"/>
</svg>
